<?xml version="1.0" encoding="UTF-8"?>
<svg id="_圖層_1" data-name="圖層_1" xmlns="http://www.w3.org/2000/svg" version="1.1" viewBox="0 0 758 756">
  <!-- Generator: Adobe Illustrator 30.3.0, SVG Export Plug-In . SVG Version: 2.1.3 Build 182)  -->
  <defs>
    <style>
      .st0 {
        fill: #fff;
      }

      .st1 {
        fill: none;
      }

      .st2 {
        fill: #231815;
      }
    </style>
  </defs>
  <circle class="st0" cx="379.11" cy="378.14" r="366.87"/>
  <g>
    <g>
      <path class="st2" d="M253.99,689.49l-33.19-15.59,19.5-41.41,32.51,15.27-4.14,8.8-21.22-9.97-3.11,6.6,19.7,9.25-4.06,8.63-19.7-9.25-3.9,8.3,21.9,10.29-4.28,9.08Z"/>
      <path class="st2" d="M309.42,691.56c-.9,3.12-2.59,5.61-5.08,7.49-4.3,3.35-10.16,3.95-17.59,1.82-7.95-2.29-12.85-6.08-14.7-11.36-.9-2.59-.92-5.98-.06-10.14l11.71,2.39c-.63,5.36,1.24,8.66,5.64,9.93,1.96.56,3.65.62,5.08.16,1.48-.48,2.42-1.4,2.81-2.76.43-1.48-.02-2.79-1.33-3.95-.77-.65-3.12-2.11-7.05-4.36-8.97-5.04-12.48-10.96-10.52-17.76,1.22-4.23,4.04-6.97,8.46-8.21,3.63-1.03,7.74-.89,12.33.43,7.03,2.02,11.47,5.16,13.32,9.41.99,2.28,1.18,5.51.58,9.7l-11.72-2.79c.1-1.83-.04-3.23-.41-4.21-.7-1.63-2.21-2.78-4.52-3.44-3.64-1.05-5.75-.53-6.35,1.55-.33,1.16.19,2.28,1.56,3.37.6.48,2.63,1.69,6.09,3.64,4.26,2.35,7.27,4.56,9.06,6.63,3.15,3.63,4.05,7.78,2.71,12.46Z"/>
      <path class="st2" d="M362.02,677.9l-13.43-1.68-4.37,35.09-12.5-1.57,4.38-35.08-13.36-1.67,1.29-10.33,39.29,4.92-1.29,10.33Z"/>
      <path class="st2" d="M404.07,712.58l-34.41.8c.36-4.08,1.54-7.69,3.54-10.81,1.96-3.17,5.55-7.03,10.76-11.6,2.89-2.48,4.74-4.25,5.55-5.31,1.46-1.74,2.16-3.5,2.12-5.29-.03-1.45-.52-2.61-1.46-3.46-.93-.77-2.11-1.14-3.52-1.1-3.28.08-5.04,2.36-5.26,6.86l-11.5-.67c.43-4.54,1.6-7.94,3.5-10.19,2.67-3.22,6.97-4.9,12.91-5.04,4.32-.1,7.75.55,10.28,1.94,4.3,2.31,6.51,6,6.63,11.08.09,3.53-1.06,6.86-3.44,10-1.45,1.91-4.35,4.76-8.71,8.56-1.64,1.12-3.14,2.59-4.51,4.41l17.27-.4.25,10.22Z"/>
      <path class="st2" d="M447.95,683.39c1.1,6.56.94,11.73-.48,15.51-2.22,5.81-6.27,9.21-12.13,10.2-4.8.81-9.11-.49-12.93-3.9-3.78-3.41-6.31-8.91-7.59-16.49-2.6-15.41,1.51-24.03,12.34-25.85,7.13-1.2,12.59,1.3,16.38,7.49,2.04,3.33,3.51,7.67,4.41,13.04ZM436.2,684.6c-.83-4.92-1.75-8.35-2.75-10.29-1.16-2.12-2.68-3.03-4.57-2.71-2.01.34-3.16,1.75-3.46,4.25-.32,2.12-.05,5.68.79,10.68.86,5.08,1.79,8.64,2.81,10.66,1.17,2.42,2.73,3.46,4.7,3.13,2.17-.37,3.35-2,3.54-4.9.16-2.05-.19-5.66-1.06-10.82Z"/>
      <path class="st2" d="M497.39,691.93l-32.77,10.52c-.81-4.02-.69-7.81.35-11.38.99-3.59,3.34-8.32,7.05-14.18,2.07-3.2,3.35-5.42,3.83-6.66.9-2.08,1.08-3.97.54-5.68-.44-1.39-1.23-2.35-2.37-2.91-1.11-.47-2.34-.49-3.68-.06-3.13,1-4.17,3.7-3.11,8.07l-11.21,2.62c-.87-4.48-.71-8.07.48-10.76,1.65-3.85,5.3-6.68,10.96-8.5,4.12-1.32,7.58-1.67,10.4-1.05,4.77,1,7.93,3.92,9.48,8.74,1.08,3.37.92,6.89-.48,10.57-.85,2.24-2.84,5.8-5.94,10.68-1.25,1.54-2.28,3.37-3.08,5.51l16.44-5.28,3.12,9.74Z"/>
      <path class="st2" d="M531.26,651.46c2.91,5.98,4.21,10.99,3.91,15.02-.49,6.21-3.41,10.62-8.75,13.23-4.37,2.13-8.87,2.11-13.49-.08-4.58-2.2-8.56-6.76-11.93-13.67-6.84-14.05-5.33-23.49,4.53-28.31,6.5-3.18,12.44-2.33,17.81,2.54,2.89,2.61,5.53,6.37,7.91,11.27ZM520.34,655.96c-2.18-4.48-4.03-7.52-5.54-9.1-1.71-1.71-3.43-2.14-5.14-1.3-1.83.89-2.54,2.58-2.12,5.06.29,2.12,1.55,5.46,3.77,10.03,2.26,4.63,4.16,7.78,5.7,9.43,1.8,1.99,3.6,2.55,5.39,1.67,1.98-.97,2.65-2.87,2.01-5.7-.43-2.01-1.78-5.37-4.08-10.08Z"/>
    </g>
    <g>
      <g>
        <path class="st1" d="M630.87,326.94l-80.87-46.69v-93.9c-25.61-22.87-55.8-40.72-89.02-51.93l-81.54,47.08-81.88-47.27c-33.07,11.07-63.16,28.71-88.73,51.34v94.36l-81.8,47.22c-3.31,16.45-5.06,33.45-5.06,50.86s1.77,34.66,5.13,51.21l82,47.34v94.13c25.78,22.76,56.14,40.43,89.51,51.44l80.84-46.67,80.5,46.48c33.65-11.2,64.23-29.18,90.11-52.32v-92.57l80.51-46.48c3.54-16.97,5.41-34.55,5.41-52.56s-1.76-34.55-5.1-51.06ZM548.97,476.26l-108.19,62.38-61.44,35.45-21.04-12.17v.11l-40.65-23.63-12.51-7.24v-.03l-95.28-55.38v-55.05h22.15v42.3l95.28,55.38h0s1.6.93,1.6.93l7.26,4.22v-.02l43.21,24.99,50-28.85,97.47-56.19v-60.62l-95.28-54v-100.35l86.42,50.23v37.21h-22.15v-24.46l-42.11-24.48v48.95l95.28,54v86.32ZM263.02,311.08v24.63l64.26,36.43v25.46l-86.42-48.98v-50.34l86.42-49.82v87.46h0s-22.15,0-22.15,0h0v-49.12l-42.11,24.28ZM379.37,243.94l-21.08,12.19v244.38l21.08,12.19,21.16-12.21v-79.77h22.15v92.56l-43.32,25-43.21-24.99V243.35l43.21-25,43.32,25v92.62h-22.15v-79.82l-21.16-12.21ZM495.81,445.55v-24.63l-64.27-36.42v-25.46l86.42,48.98v50.34l-86.42,49.82v-87.45h22.15v49.12l42.11-24.28ZM548.97,335.93h-22.15v-42.3l-95.28-55.38h0s-2.16-1.26-2.16-1.26l-6.7-3.89v.03l-43.33-25-49.81,28.81-97.54,56.23v60.62l95.28,54v100.35l-86.42-50.23v-37.21h22.15v24.46l42.11,24.48v-48.95l-95.28-54v-86.33l108.55-62.58,60.93-35.25,21.2,12.23v-.17l39.92,23.2,13.25,7.64v.06l95.28,55.38v55.05Z"/>
        <polygon class="st2" points="453.7 286.99 495.81 311.47 495.81 335.93 517.96 335.93 517.96 298.72 431.54 248.49 431.54 335.97 431.54 348.85 526.82 402.85 526.82 463.47 429.36 519.66 379.35 548.51 336.15 523.52 336.15 523.54 328.89 519.32 327.29 518.39 327.29 518.39 232.01 463.01 232.01 420.7 209.85 420.7 209.85 475.75 305.13 531.13 305.13 531.17 317.64 538.4 358.29 562.03 358.29 561.92 379.34 574.09 440.78 538.64 548.97 476.26 548.97 389.94 453.7 335.94 453.7 286.99"/>
        <polygon class="st2" points="453.7 225.44 440.45 217.8 400.53 194.6 400.53 194.77 379.34 182.54 318.41 217.78 209.85 280.36 209.85 366.69 305.13 420.69 305.13 469.64 263.02 445.16 263.02 420.7 240.87 420.7 240.87 457.91 327.28 508.14 327.28 407.79 232.01 353.78 232.01 293.16 329.55 236.93 379.35 208.12 422.68 233.12 422.68 233.09 429.38 236.99 431.54 238.23 431.54 238.24 526.82 293.62 526.82 335.93 548.97 335.93 548.97 280.88 453.7 225.5 453.7 225.44"/>
        <polygon class="st2" points="422.68 335.97 422.68 243.35 379.36 218.35 336.15 243.35 336.15 513.28 379.36 538.28 422.68 513.28 422.68 420.71 400.53 420.71 400.53 500.49 379.37 512.69 358.29 500.51 358.29 256.13 379.37 243.94 400.53 256.15 400.53 335.97 422.68 335.97"/>
        <polygon class="st2" points="431.54 420.71 431.54 508.17 517.96 458.35 517.96 408.01 431.54 359.03 431.54 384.49 495.81 420.92 495.81 445.55 453.7 469.83 453.7 420.71 431.54 420.71"/>
        <polygon class="st2" points="305.13 335.92 327.28 335.92 327.28 335.92 327.28 248.46 240.87 298.28 240.87 348.62 327.28 397.6 327.28 372.14 263.02 335.71 263.02 311.08 305.13 286.8 305.13 335.92 305.13 335.92"/>
        <path class="st2" d="M569.35,187.62c-50.85-50.85-118.47-78.86-190.38-78.86s-139.53,28.01-190.38,78.86c-50.85,50.85-78.86,118.47-78.86,190.38s28.01,139.53,78.86,190.38c50.85,50.85,118.47,78.86,190.38,78.86s139.53-28.01,190.38-78.86c50.85-50.85,78.86-118.47,78.86-190.38s-28.01-139.53-78.86-190.38ZM550.06,477.04v92.57c-25.88,23.14-56.46,41.12-90.11,52.32l-80.5-46.48-80.84,46.67c-33.37-11.01-63.73-28.69-89.51-51.44v-94.13l-82-47.34c-3.36-16.55-5.13-33.68-5.13-51.21s1.75-34.41,5.06-50.86l81.8-47.22v-94.36c25.57-22.63,55.66-40.27,88.73-51.34l81.88,47.27,81.54-47.08c33.22,11.21,63.41,29.06,89.02,51.93v93.9l80.87,46.69c3.34,16.51,5.1,33.58,5.1,51.06s-1.87,35.58-5.41,52.56l-80.51,46.48Z"/>
      </g>
      <g>
        <path class="st2" d="M83.02,431.88c3.09-.77,6.04-.57,8.87.62,4.96,2,8.37,6.68,10.22,14.05,1.98,7.88,1.17,13.91-2.41,18.1-1.76,2.04-4.62,3.73-8.58,5.06l-3.74-11.12c4.86-2.1,6.75-5.33,5.65-9.69-.49-1.94-1.28-3.41-2.37-4.4-1.14-1.02-2.38-1.36-3.73-1.02-1.46.37-2.36,1.39-2.7,3.08-.18.97-.25,3.68-.23,8.14.14,10.11-3.16,16.02-9.9,17.7-4.2,1.05-7.91,0-11.14-3.14-2.67-2.57-4.57-6.14-5.72-10.69-1.75-6.97-1.27-12.29,1.43-15.96,1.44-1.96,4.1-3.72,7.96-5.28l3.41,11.33c-1.6.83-2.73,1.63-3.37,2.43-1.04,1.4-1.27,3.25-.69,5.54.9,3.61,2.39,5.15,4.44,4.63,1.15-.29,1.85-1.28,2.09-2.99.11-.74.14-3.06.08-6.97-.1-4.77.29-8.43,1.16-10.97,1.53-4.47,4.61-7.28,9.25-8.45Z"/>
        <path class="st2" d="M69.58,379.17c6.92-.54,12.56.83,16.91,4.09,4.82,3.56,7.52,9.04,8.1,16.45.59,7.57-1.27,13.51-5.56,17.82-3.8,3.82-9.06,5.99-15.78,6.51-7,.54-12.71-.9-17.11-4.32-4.66-3.57-7.27-8.94-7.82-16.11-.59-7.61,1.2-13.57,5.37-17.87,3.76-3.85,9.05-6.05,15.89-6.58ZM70.5,391.7c-8.63.67-12.69,4.32-12.18,10.96.51,6.56,5.14,9.49,13.89,8.81,4.6-.36,7.96-1.7,10.07-4.04,1.7-1.85,2.44-4.12,2.23-6.81-.21-2.69-1.3-4.88-3.27-6.57-2.28-1.95-5.87-2.74-10.75-2.36Z"/>
        <path class="st2" d="M81.56,328.49c10.12,3.63,14.68,10.63,13.69,21-.71,7.44-3.64,12.84-8.81,16.21-4.37,2.83-9.79,3.93-16.25,3.31-7.6-.72-13.29-3.46-17.06-8.21-3.33-4.25-4.7-9.47-4.11-15.65.96-10.04,6.29-16.06,16-18.04l1.55,11.53c-4.66,1.12-7.17,3.6-7.54,7.47-.58,6.1,3.48,9.56,12.18,10.39,8.74.83,13.39-1.7,13.95-7.59.43-4.47-2.26-7.66-8.07-9.57l4.48-10.83Z"/>
        <path class="st2" d="M93.89,279.66c9.38,5.24,12.74,12.89,10.06,22.96-1.92,7.22-5.7,12.07-11.35,14.54-4.78,2.07-10.3,2.27-16.58.6-7.38-1.96-12.54-5.6-15.48-10.9-2.58-4.75-3.08-10.12-1.48-16.12,2.59-9.75,8.84-14.8,18.74-15.17l-.37,11.63c-4.78.34-7.67,2.38-8.67,6.13-1.57,5.92,1.86,10,10.31,12.25,8.49,2.26,13.49.52,15.01-5.2,1.16-4.34-.97-7.93-6.39-10.77l6.19-9.95Z"/>
        <path class="st2" d="M126.15,242.99l-14.77,32.85-41.01-18.44,14.47-32.18,8.72,3.92-9.44,21.01,6.54,2.94,8.76-19.5,8.55,3.84-8.76,19.5,8.21,3.69,9.75-21.68,9,4.04Z"/>
        <path class="st2" d="M153.81,200.14l-7.75,11.69-13.63-.73c-3.13-.16-5.36.03-6.69.56-1.01.41-2.01,1.36-3,2.86l-.47.72,14.96,9.92-6.74,10.16-37.47-24.85,11.55-17.41c2.55-3.84,4.77-6.44,6.64-7.8,2.23-1.66,4.71-2.34,7.45-2.04,2.19.18,4.28.93,6.29,2.26,3.64,2.42,5.52,5.72,5.63,9.91.06,1.75-.24,3.61-.91,5.57,2.53-1.75,6.21-2.42,11.04-2.01l13.1,1.19ZM118.75,196.36c-1.67-1.11-3.23-1.11-4.69-.02-.74.59-1.85,2.01-3.34,4.26l-3.21,4.85,7.3,4.84,3.05-4.59c1.46-2.21,2.35-3.83,2.64-4.87.51-1.87-.08-3.36-1.74-4.46Z"/>
        <path class="st2" d="M190.15,143.95c2.15,2.35,3.39,5.04,3.69,8.09.61,5.32-1.87,10.54-7.47,15.68-5.98,5.5-11.67,7.68-17.05,6.52-2.64-.57-5.48-2.28-8.54-5.13l7.99-8.6c4.17,3.27,7.9,3.38,11.21.34,1.47-1.35,2.38-2.75,2.74-4.18.35-1.49.05-2.74-.88-3.77-1.02-1.11-2.36-1.41-4-.9-.94.31-3.36,1.54-7.26,3.68-8.82,4.95-15.58,4.87-20.28-.25-2.93-3.19-3.78-6.95-2.56-11.29.99-3.57,3.21-6.95,6.67-10.13,5.29-4.86,10.19-6.98,14.7-6.36,2.41.33,5.23,1.82,8.44,4.47l-8.33,8.41c-1.49-1.01-2.74-1.62-3.74-1.8-1.72-.25-3.46.43-5.2,2.04-2.74,2.52-3.38,4.55-1.95,6.12.8.87,2.01,1.01,3.62.41.7-.26,2.76-1.34,6.16-3.25,4.15-2.37,7.54-3.77,10.19-4.21,4.66-.79,8.61.58,11.84,4.1Z"/>
        <path class="st2" d="M217.08,100.55l-11.04,7.4,19.34,28.85-10.28,6.89-19.34-28.85-10.99,7.37-5.7-8.5,32.31-21.66,5.69,8.5Z"/>
        <path class="st2" d="M281.22,108.24l-11.73,5.41-6.32-6.53-14.02,6.46,1.03,8.97-11.57,5.34-3.37-47.96,11.51-5.31,34.47,33.62ZM256.19,99.75l-9.72-10.69,1.6,14.44,8.12-3.75Z"/>
        <path class="st2" d="M327.39,95.71l-13.54,3.67-9.76-9.54c-2.24-2.18-4.04-3.52-5.4-3.99-1.03-.35-2.41-.3-4.14.17l-.83.22,4.7,17.32-11.77,3.19-11.77-43.39,20.16-5.47c4.45-1.21,7.83-1.7,10.13-1.48,2.77.22,5.09,1.35,6.95,3.38,1.53,1.58,2.61,3.53,3.24,5.85,1.15,4.22.38,7.94-2.3,11.16-1.11,1.36-2.57,2.56-4.36,3.59,3.06.36,6.27,2.28,9.62,5.77l9.06,9.54ZM303.53,69.75c-.52-1.93-1.69-2.97-3.51-3.11-.94-.04-2.71.29-5.31,1l-5.62,1.52,2.29,8.45,5.32-1.44c2.56-.7,4.29-1.34,5.19-1.92,1.61-1.07,2.16-2.57,1.63-4.5Z"/>
        <path class="st2" d="M387.23,56.32l-20.33.56.22,7.84,17.51-.48.26,9.37-17.51.48.5,18.19-12.19.34-1.24-44.95,32.52-.9.26,9.55Z"/>
        <path class="st2" d="M442.45,75.26c-.92,6.88-3.43,12.11-7.53,15.68-4.49,3.97-10.41,5.47-17.78,4.49-7.53-1.01-12.95-4.06-16.27-9.15-2.94-4.51-3.97-10.11-3.07-16.79.93-6.96,3.53-12.24,7.8-15.83,4.46-3.81,10.26-5.24,17.38-4.3,7.57,1.01,13.02,4.01,16.35,8.98,2.99,4.48,4.03,10.12,3.12,16.92ZM430.01,73.54c1.15-8.58-1.58-13.31-8.18-14.19-6.52-.87-10.36,3.05-11.52,11.75-.61,4.57,0,8.14,1.85,10.69,1.46,2.05,3.52,3.25,6.19,3.61,2.67.35,5.04-.26,7.1-1.83,2.39-1.82,3.9-5.17,4.55-10.02Z"/>
        <path class="st2" d="M494.88,91.13c-2.1,6.61-5.49,11.32-10.15,14.12-5.11,3.13-11.21,3.57-18.29,1.31-7.24-2.3-12.04-6.26-14.42-11.86-2.11-4.96-2.14-10.65-.09-17.07,2.13-6.69,5.61-11.44,10.44-14.23,5.06-2.97,11.01-3.37,17.86-1.19,7.28,2.32,12.12,6.22,14.54,11.7,2.16,4.93,2.2,10.66.11,17.2ZM482.93,87.26c2.63-8.25.77-13.39-5.58-15.4-6.27-1.99-10.73,1.19-13.39,9.56-1.4,4.4-1.42,8.01-.05,10.85,1.08,2.27,2.9,3.82,5.47,4.63,2.57.82,5.01.63,7.31-.56,2.67-1.38,4.75-4.4,6.24-9.07Z"/>
        <path class="st2" d="M542.94,101.68l-11.83-6.06-15.83,30.92-11.02-5.64,15.83-30.92-11.78-6.03,4.66-9.1,34.62,17.73-4.66,9.11Z"/>
        <path class="st2" d="M572.85,149.28c-1.62,2.21-3.65,3.73-6.09,4.57-2.47.87-4.92.97-7.36.3-2.26-.59-5.75-2.63-10.49-6.1l-15.7-11.53,26.61-36.25,17.04,12.51c2.37,1.74,4.07,3.22,5.11,4.43,1.82,1.94,2.88,4.01,3.19,6.21.45,3.12-.23,5.91-2.05,8.38-1.16,1.58-2.73,2.68-4.71,3.31-2.2.72-4.43.62-6.7-.28,4.45,4.63,4.84,9.45,1.17,14.46ZM563.31,141.06c1.23-1.68,1.26-3.33.07-4.96-.61-.9-1.94-2.11-4.02-3.64l-5.19-3.81-5.4,7.36,5.58,4.1c1.97,1.45,3.44,2.32,4.39,2.61,1.84.54,3.36-.02,4.57-1.66ZM572.42,125.86c1.09-1.48,1.07-2.91-.04-4.29-.51-.68-1.95-1.89-4.33-3.63l-3.9-2.86-4.68,6.37,4.2,3.08c2.14,1.57,3.64,2.5,4.5,2.77,1.7.59,3.11.11,4.25-1.44Z"/>
        <path class="st2" d="M600.63,195.9l-9-9.28,4.06-8.13-10.75-11.08-8.12,3.95-8.88-9.14,44.13-19.1,8.83,9.1-20.28,43.67ZM600.33,169.47l6.86-12.72-13.09,6.3,6.23,6.42Z"/>
        <path class="st2" d="M623.1,228.11l-19.38-27.41,36.71-25.97,7.04,9.95-28.31,20.02,12.35,17.45-8.4,5.94Z"/>
        <path class="st2" d="M642.18,264.81l-15.26-29.9,40.05-20.44,5.54,10.86-30.88,15.76,9.72,19.04-9.17,4.68Z"/>
        <path class="st2" d="M676.49,328.56c-10.75-.15-17.34-5.28-19.77-15.41-1.75-7.27-.73-13.33,3.06-18.19,3.21-4.09,7.98-6.9,14.29-8.42,7.42-1.79,13.69-1.05,18.81,2.22,4.53,2.94,7.52,7.43,8.97,13.47,2.36,9.81-.73,17.23-9.26,22.26l-5.21-10.4c4.04-2.57,5.61-5.74,4.71-9.51-1.43-5.96-6.4-7.91-14.89-5.87-8.54,2.05-12.11,5.96-10.73,11.72,1.05,4.37,4.63,6.51,10.74,6.43l-.71,11.7Z"/>
        <path class="st2" d="M665.47,373.71l-2.65-33.47,44.82-3.55.96,12.15-34.56,2.74,1.69,21.31-10.26.81Z"/>
        <path class="st2" d="M682.2,422.27c-5.62-.45-9.81-1.58-12.57-3.4-4.99-3.27-7.15-8.97-6.5-17.11.34-4.19,1.08-7.52,2.21-9.96,1.46-3.37,3.87-5.88,7.24-7.53,2.73-1.34,6.9-1.78,12.52-1.33l25.22,2.02-.98,12.28-25.71-2.06c-2.85-.23-4.95-.09-6.3.42-2.45.87-3.8,2.97-4.07,6.31-.25,3.14.7,5.34,2.85,6.62,1.25.67,3.31,1.13,6.16,1.35l25.89,2.07-.99,12.33-24.97-2Z"/>
        <path class="st2" d="M663.59,472.29c-2.66-.67-4.83-1.98-6.53-3.93-1.74-1.96-2.75-4.19-3.04-6.71-.3-2.31.27-6.32,1.72-12.02l4.78-18.88,43.59,11.03-5.19,20.49c-.72,2.85-1.45,4.98-2.19,6.4-1.12,2.41-2.63,4.18-4.56,5.29-2.72,1.59-5.56,2.01-8.53,1.25-1.9-.48-3.51-1.52-4.84-3.12-1.49-1.77-2.24-3.88-2.25-6.32-2.62,5.87-6.94,8.04-12.96,6.52ZM667.62,460.35c2.02.51,3.56-.09,4.63-1.8.61-.9,1.23-2.6,1.86-5.09l1.58-6.24-8.85-2.24-1.7,6.71c-.6,2.37-.86,4.06-.77,5.05.19,1.9,1.28,3.11,3.26,3.61ZM685.13,463.08c1.78.45,3.1-.1,3.96-1.65.44-.73,1.02-2.52,1.74-5.37l1.19-4.69-7.66-1.94-1.28,5.05c-.65,2.57-.94,4.31-.88,5.21.09,1.79,1.07,2.93,2.93,3.4Z"/>
      </g>
      <path class="st2" d="M378.97,756C170.01,756,0,586.43,0,378S170.01,0,378.97,0s378.97,169.57,378.97,378-170.01,378-378.97,378ZM378.97,23.98C183.23,23.98,23.98,182.8,23.98,378s159.25,354.01,354.99,354.01,354.99-158.81,354.99-354.01S574.71,23.98,378.97,23.98Z"/>
      <path class="st2" d="M209.2,632.22c-37.85-25.34-69.89-59.09-93.16-98.26-6.6-11.1-12.48-22.61-17.65-34.44-1-2.28-4.34-2.81-6.31-1.65-2.36,1.38-2.66,4.02-1.65,6.31,18.75,42.88,47.21,81.45,82.63,112.03,9.99,8.62,20.52,16.63,31.49,23.98,4.95,3.31,9.57-4.68,4.66-7.97h0Z"/>
      <path class="st2" d="M551.3,640.19c38.97-26.09,72.02-60.66,96.09-100.93,6.75-11.3,12.76-23.02,18.03-35.08,1-2.28.67-4.95-1.65-6.31-1.95-1.14-5.31-.64-6.31,1.65-18.38,42.03-45.97,79.62-80.63,109.68-9.57,8.3-19.65,15.97-30.18,23.02-4.91,3.29-.3,11.28,4.66,7.97h0Z"/>
    </g>
  </g>
</svg>